<?xml version="1.0" encoding="UTF-8"?>
<svg width="47px" height="47px" viewBox="0 0 47 47" version="1.1" xmlns="http://www.w3.org/2000/svg" xmlns:xlink="http://www.w3.org/1999/xlink">
    <!-- Generator: sketchtool 56.3 (101010) - https://sketch.com -->
    <title>DCD635A5-5093-4B8F-8B42-01E79697421B</title>
    <desc>Created with sketchtool.</desc>
    <g id="Getting-Started-Hifi" stroke="none" stroke-width="1" fill="none" fill-rule="evenodd">
        <g id="01.01-Getting-Started" transform="translate(-991.000000, -438.000000)" fill="#0F62FE">
            <g id="pictograms/infrastructure/integration-01-copy-3" transform="translate(991.000000, 437.000000)">
                <path d="M38.9995507,25.4466001 L38.9995507,8.52704995 L33.5395505,8.52704995 L33.5395505,7.44704998 L39.5395505,7.44704998 C39.8380507,7.44704998 40.0795507,7.68854997 40.0795507,7.98704996 L40.0795507,25.4466001 L45.5399992,25.4466001 C45.8384992,25.4466001 46.0799992,25.6881001 46.0799992,25.9866001 L46.0799992,46.9866005 C46.0799992,47.2851005 45.8384992,47.5266005 45.5399992,47.5266005 L33.5399988,47.5266005 C33.2414988,47.5266005 32.9999988,47.2851005 32.9999988,46.9866005 L32.9999988,25.9866001 C32.9999988,25.6881001 33.2414988,25.4466001 33.5399988,25.4466001 L38.9995507,25.4466001 Z M13.0577665,40.446601 L29.0399997,40.446601 L29.0399997,41.526601 L13.0577664,41.526601 C12.7822931,44.8809915 9.96404528,47.5266005 6.5398502,47.5266005 C2.93385009,47.5266005 -0.000149999996,44.5926004 -0.000149999996,40.9866003 C-0.000149999996,37.3806002 2.93385009,34.4466001 6.5398502,34.4466001 C9.96404576,34.4466001 12.7822939,37.0922098 13.0577665,40.446601 Z M19.4995496,7.44674993 L19.4995496,2.0409 C19.4995496,1.84140001 19.6090496,1.65840002 19.7845496,1.56540002 C19.9585496,1.46940002 20.1730496,1.47990002 20.3365496,1.58940002 L29.3365493,7.53689976 C29.4880493,7.63589976 29.5795493,7.80389975 29.5795493,7.98539974 C29.5795493,8.16689973 29.4895493,8.33489973 29.3395493,8.43539972 L20.3395496,14.4353995 C20.2495496,14.4968995 20.1445496,14.5268995 20.0395496,14.5268995 C19.9525496,14.5268995 19.8640496,14.5058995 19.7845496,14.4623995 C19.6090496,14.3693995 19.4995496,14.1863995 19.4995496,13.9868995 L19.4995496,8.5267499 L7.07954991,8.5267499 L7.07954991,31.2367494 L5.99954995,31.2367494 L5.99954995,7.98674991 C5.99954995,7.68824992 6.24104994,7.44674993 6.53954993,7.44674993 L19.4995496,7.44674993 Z M20.5795496,3.04440004 L20.5795496,12.9774004 L28.0630494,7.9884002 L20.5795496,3.04440004 Z M6.5398502,35.5266001 C3.52935011,35.5266001 1.07985004,37.9761002 1.07985004,40.9866003 C1.07985004,43.9971004 3.52935011,46.4466004 6.5398502,46.4466004 C9.55035029,46.4466004 11.9998504,43.9971004 11.9998504,40.9866003 C11.9998504,37.9761002 9.55035029,35.5266001 6.5398502,35.5266001 Z M34.0799988,46.4465997 L44.9999991,46.4465997 L44.9999991,26.5266001 L34.0799988,26.5266001 L34.0799988,46.4465997 Z" id="Fill-12"></path>
            </g>
        </g>
    </g>
</svg>