<?xml version="1.0" encoding="UTF-8"?>
<svg width="47px" height="41px" viewBox="0 0 47 41" version="1.1" xmlns="http://www.w3.org/2000/svg" xmlns:xlink="http://www.w3.org/1999/xlink">
    <!-- Generator: sketchtool 56.3 (101010) - https://sketch.com -->
    <title>B2052060-4BF4-4735-81A1-31ADED1A4B43</title>
    <desc>Created with sketchtool.</desc>
    <g id="Getting-Started-Hifi" stroke="none" stroke-width="1" fill="none" fill-rule="evenodd">
        <g id="01.01-Getting-Started" transform="translate(-672.000000, -441.000000)" fill="#0f62fe">
            <g id="pictograms/infrastructure/integration-01-copy-2" transform="translate(671.000000, 437.000000)">
                <path d="M27.7500007,24.5421002 C27.7500007,26.3121003 26.3100006,27.7521003 24.5400006,27.7521003 C22.7700005,27.7521003 21.3300004,26.3121003 21.3300004,24.5421002 C21.3300004,22.7721001 22.7700005,21.3321 24.5400006,21.3321 C26.3100006,21.3321 27.7500007,22.7721001 27.7500007,24.5421002 M20.25,24.5420995 C20.25,22.1765996 22.1744999,20.2520996 24.5399998,20.2520996 C26.9054998,20.2520996 28.8299997,22.1765996 28.8299997,24.5420995 C28.8299997,26.9075994 26.9054998,28.8320993 24.5399998,28.8320993 C22.1744999,28.8320993 20.25,26.9075994 20.25,24.5420995 Z M43.2898514,27.7522502 C45.0598515,27.7522502 46.4998516,26.3122501 46.4998516,24.54225 C46.4998516,22.77225 45.0598515,21.3322499 43.2898514,21.3322499 C41.5198513,21.3322499 40.0798513,22.77225 40.0798513,24.54225 C40.0798513,26.3122501 41.5198513,27.7522502 43.2898514,27.7522502 Z M43.2898511,20.2522498 C45.655351,20.2522498 47.5798509,22.1767498 47.5798509,24.5422497 C47.5798509,26.9077496 45.655351,28.8322495 43.2898511,28.8322495 C40.9243512,28.8322495 38.9998512,26.9077496 38.9998512,24.5422497 C38.9998512,22.1767498 40.9243512,20.2522498 43.2898511,20.2522498 Z M9.00000036,24.5420998 C9.00000036,22.7720997 7.56000029,21.3320997 5.7900002,21.3320997 C4.02000011,21.3320997 2.58000004,22.7720997 2.58000004,24.5420998 C2.58000004,26.3120999 4.02000011,27.7521 5.7900002,27.7521 C7.56000029,27.7521 9.00000036,26.3120999 9.00000036,24.5420998 Z M1.5,24.5420995 C1.5,22.1765996 3.42449993,20.2520996 5.78999984,20.2520996 C8.15549976,20.2520996 10.0799997,22.1765996 10.0799997,24.5420995 C10.0799997,26.9075994 8.15549976,28.8320993 5.78999984,28.8320993 C3.42449993,28.8320993 1.5,26.9075994 1.5,24.5420995 Z M37.0693503,10.3968001 C37.9543503,8.86530002 37.4278503,6.89729993 35.8948503,6.01229989 C35.3908503,5.72129988 34.8388504,5.58329988 34.2943504,5.58329988 C33.1858504,5.58329988 32.1028504,6.1577999 31.5103504,7.18679995 C30.6253504,8.71980001 31.1518504,10.6863001 32.6848504,11.5713001 C34.2163504,12.4578002 36.1858503,11.9298002 37.0693503,10.3968001 Z M38.4343503,7.68179997 C38.7298503,8.78880001 38.5783503,9.94530004 38.0053503,10.9368001 C37.4323503,11.9298001 36.5068503,12.6393001 35.3998504,12.9363001 C35.0308504,13.0353001 34.6558504,13.0848001 34.2838504,13.0848001 C33.5398504,13.0848001 32.8063504,12.8898001 32.1448504,12.5073001 C31.1518504,11.9343001 30.4423504,11.0088001 30.1453504,9.90180004 C29.8498504,8.79630001 30.0013504,7.63979997 30.5743504,6.64679995 C31.1473504,5.65379992 32.0728504,4.9442999 33.1798504,4.64729989 C34.2868504,4.35179988 35.4433504,4.50329989 36.4348503,5.0777999 C37.4278503,5.64929992 38.1373503,6.57479994 38.4343503,7.68179997 Z M17.5693496,41.8968002 C18.4543496,40.3653001 17.9278496,38.3973 16.3948496,37.5123 C15.8908496,37.2213 15.3388496,37.0833 14.7943496,37.0833 C13.6858496,37.0833 12.6028497,37.6578 12.0103497,38.6868 C11.1253497,40.2198001 11.6518497,42.1863002 13.1848496,43.0713002 C14.7148496,43.9578003 16.6858496,43.4298002 17.5693496,41.8968002 Z M16.9348496,36.5777999 C17.9278496,37.1493 18.6373496,38.0748 18.9343496,39.1818 C19.2298496,40.2888 19.0783496,41.4453001 18.5053496,42.4368001 C17.9323496,43.4298001 17.0068496,44.1393001 15.8998496,44.4363001 C15.5308496,44.5353001 15.1558496,44.5848001 14.7838496,44.5848001 C14.0398496,44.5848001 13.3063496,44.3898001 12.6448496,44.0073001 C11.6518496,43.4343001 10.9423496,42.5088001 10.6453497,41.4018001 C10.3498497,40.2963 10.5013497,39.1398 11.0743496,38.1468 C11.6473496,37.1538 12.5728496,36.4442999 13.6798496,36.1472999 C14.7883496,35.8502999 15.9418496,36.0032999 16.9348496,36.5777999 Z M16.3945501,11.5716001 C17.9275501,10.6866 18.4555501,8.72009998 17.5690501,7.18709994 C16.9765501,6.15809991 15.8950501,5.5820999 14.7850501,5.5820999 C14.2405501,5.5820999 13.6885501,5.7215999 13.1845501,6.01259991 C11.6515501,6.89759993 11.1250501,8.86409999 12.0100501,10.3971 C12.8950501,11.9301001 14.8630501,12.4581001 16.3945501,11.5716001 Z M18.5050499,6.64709982 C19.0780499,7.63859979 19.2310499,8.79509975 18.9340499,9.90209971 C18.6370499,11.0090997 17.9275499,11.9345996 16.9345499,12.5075996 C16.2730499,12.8885996 15.53955,13.0835996 14.79705,13.0835996 C14.42505,13.0835996 14.05005,13.0355996 13.67955,12.9365996 C12.57255,12.6395996 11.64705,11.9300996 11.07555,10.9370997 C10.5010501,9.94559971 10.3495501,8.78909975 10.64505,7.68209978 C10.94205,6.57509982 11.65155,5.64959985 12.64455,5.07659987 C13.63605,4.50359989 14.79105,4.35209989 15.8995499,4.64759988 C17.0065499,4.94459987 17.9320499,5.65409985 18.5050499,6.64709982 Z M35.8945486,43.0715989 C37.4275486,42.1865989 37.9555486,40.2200989 37.0690486,38.6870988 C36.4765486,37.6580988 35.3950486,37.0820988 34.2850486,37.0820988 C33.7405486,37.0820988 33.1885486,37.2215988 32.6845486,37.5125988 C31.1515486,38.3975988 30.6250486,40.3640989 31.5100486,41.8970989 C32.3935486,43.430099 34.3630486,43.958099 35.8945486,43.0715989 Z M35.3995485,36.1475988 C36.5065485,36.4445988 37.4320485,37.1540987 38.0050485,38.1470987 C38.5780485,39.1385987 38.7310485,40.2950986 38.4340485,41.4020986 C38.1370485,42.5090986 37.4275485,43.4345985 36.4345485,44.0075985 C35.7730485,44.3885985 35.0395485,44.5835985 34.2970485,44.5835985 C33.9250485,44.5835985 33.5500486,44.5355985 33.1795486,44.4365985 C32.0725486,44.1395985 31.1470486,43.4300985 30.5755486,42.4370986 C30.0010486,41.4455986 29.8495486,40.2890986 30.1450486,39.1820987 C30.4420486,38.0750987 31.1515486,37.1495987 32.1445486,36.5765988 C33.1375486,36.0035988 34.2925485,35.8520988 35.3995485,36.1475988 Z" id="Fill-1"></path>
            </g>
        </g>
    </g>
</svg>