<?xml version="1.0" encoding="UTF-8"?>
<svg width="46px" height="40px" viewBox="0 0 46 40" version="1.1" xmlns="http://www.w3.org/2000/svg" xmlns:xlink="http://www.w3.org/1999/xlink">
    <!-- Generator: sketchtool 56.3 (101010) - https://sketch.com -->
    <title>5114426F-A739-4C4B-AFD9-B67A422EE80F</title>
    <desc>Created with sketchtool.</desc>
    <g id="Getting-Started-Hifi" stroke="none" stroke-width="1" fill="none" fill-rule="evenodd">
        <g id="01.01-Getting-Started" transform="translate(-353.000000, -441.000000)" fill="#0F62FE">
            <g id="pictograms/infrastructure/integration-01-copy" transform="translate(352.000000, 437.000000)">
                <path d="M25.6239004,35.7706497 C25.6239004,36.5986497 24.9519004,37.2706497 24.1239004,37.2706497 C23.2959004,37.2706497 22.6239004,36.5986497 22.6239004,35.7706497 C22.6239004,34.9426497 23.2959004,34.2706497 24.1239004,34.2706497 C24.9519004,34.2706497 25.6239004,34.9426497 25.6239004,35.7706497 Z M2.97525001,42.7309502 L45.2722499,42.7309502 L24.12375,6.10095012 L2.97525001,42.7309502 Z M46.2067513,43.810951 L2.03924998,43.810951 C1.84724998,43.810951 1.66874997,43.707451 1.57124997,43.540951 C1.47524996,43.374451 1.47524996,43.167451 1.57124997,43.000951 L23.6557506,4.75095011 C23.8492506,4.4164501 24.3982507,4.4164501 24.5917507,4.75095011 L46.6747513,43.000951 C46.7707513,43.167451 46.7707513,43.374451 46.6747513,43.540951 C46.5787513,43.707451 46.4002513,43.810951 46.2067513,43.810951 Z M24.1239004,30.3105004 C23.8254004,30.3105004 23.5839004,30.0690004 23.5839004,29.7705004 L23.5839004,14.7705 C23.5839004,14.472 23.8254004,14.2305 24.1239004,14.2305 C24.4224004,14.2305 24.6639004,14.472 24.6639004,14.7705 L24.6639004,29.7705004 C24.6639004,30.0690004 24.4224004,30.3105004 24.1239004,30.3105004 Z" id="Fill-7"></path>
            </g>
        </g>
    </g>
</svg>