<?xml version="1.0" encoding="UTF-8"?>
<svg width="106px" height="58px" viewBox="0 0 106 58" version="1.1" xmlns="http://www.w3.org/2000/svg" xmlns:xlink="http://www.w3.org/1999/xlink">
    <!-- Generator: sketchtool 59 (101010) - https://sketch.com -->
    <title>C64DD4D9-A17B-4145-AC05-AB699FC6EFF7</title>
    <desc>Created with sketchtool.</desc>
    <g id="Page-1" stroke="none" stroke-width="1" fill="none" fill-rule="evenodd">
        <g id="About-Modal-1" transform="translate(-536.000000, -853.000000)">
            <g id="Modal-/-passive" transform="translate(428.000000, 343.000000)">
                <g id="Group-4">
                    <g id="Java-Logo-Copy" transform="translate(108.000000, 510.000000)">
                        <path d="M21.3795832,25.4409394 C23.9749782,28.362776 20.6999731,31 20.6999731,31 C20.6999731,31 27.287183,27.6659657 24.2611298,23.4949176 C21.4353827,19.6000701 19.2663536,17.6680687 31,11 C31,11 12.5847137,15.5061339 21.3795832,25.4409394" id="Fill-1" fill="#F8971D"></path>
                        <path d="M23.6559754,0 C23.6559754,0 28.8946383,5.30269091 18.6868905,13.4617212 C10.5003062,20.0052364 16.819963,23.7385697 18.6828669,28 C13.90423,23.6381091 10.3983763,19.7948121 12.7508122,16.2162424 C16.2016774,10.9692121 25.7710219,8.42647273 23.6559754,0" id="Fill-3" fill="#F8971D"></path>
                        <path d="M58.6539041,53.2472373 C58.6539041,52.3006181 58.0509497,51.8286196 56.8450407,51.8286196 L56.2858004,51.8286196 L56.2858004,54.6973216 L56.8676515,54.6973216 C58.0584866,54.6973216 58.6539041,54.2135231 58.6539041,53.2472373 M60,53.133171 C60,53.8582131 59.7497739,54.4246114 59.2493217,54.8310545 C58.6780223,55.3004308 57.8127826,55.53643 56.65511,55.53643 L56.2858004,55.53643 L56.2858004,58 L55,58 L55,51.0104889 C55.198975,51.0104889 55.5185409,51.0078666 55.9632198,51 L57.0590895,51 C59.0186916,51 60,51.71062 60,53.133171" id="Fill-5" fill="#58839F"></path>
                        <path d="M64.7406716,54.565051 C64.7406716,53.5982143 64.5895522,52.8928571 64.2873134,52.4502551 C64.0074627,52.0408163 63.5694963,51.8354592 62.9720149,51.8354592 C61.8302239,51.8354592 61.2593284,52.6913265 61.2593284,54.4043367 C61.2593284,55.3852041 61.4104478,56.0969388 61.7126866,56.5408163 C61.9925373,56.9489796 62.431903,57.1543367 63.0279851,57.1543367 C64.1697761,57.1543367 64.7406716,56.2908163 64.7406716,54.565051 M66,54.3737245 C66,55.5969388 65.7089552,56.5191327 65.1268657,57.1441327 C64.5979478,57.7155612 63.8563433,58 62.90625,58 C61.9561567,58 61.2453358,57.7487245 60.7737873,57.244898 C60.2588619,56.6875 60,55.8112245 60,54.6160714 C60,53.4005102 60.2910448,52.4808673 60.8731343,51.8558673 C61.4034515,51.2857143 62.1436567,51 63.0951493,51 C65.0317164,51 66,52.125 66,54.3737245" id="Fill-7" fill="#58839F"></path>
                        <path d="M76,51 C75.4357585,53.5439024 74.8088235,55.8776735 74.119195,58 L72.820743,58 L71.6978328,53.8315197 L71.4679567,52.7834897 L71.4568111,52.7834897 L71.2478328,53.8407129 L70.2029412,58 L68.8919505,58 C68.1814241,55.8290807 67.5503096,53.4953096 67,51 L68.2775542,51 C68.4447368,51.8234522 68.903096,53.6857411 69.6526316,56.5894934 L69.6623839,56.5894934 L69.8281734,55.7712946 L71.0165635,51 L72.149226,51 L73.580031,56.5894934 L73.602322,56.5894934 C74.1818885,54.2399625 74.6040248,52.3763602 74.8673375,51 L76,51 Z" id="Fill-9" fill="#58839F"></path>
                        <polygon id="Fill-11" fill="#58839F" points="81 58 77 58 77 51 80.9522031 51 80.9522031 51.8694184 78.2740851 51.8694184 78.2740851 53.9969981 80.4802091 53.9969981 80.4802091 54.8375235 78.2740851 54.8375235 78.2740851 57.1187617 81 57.1187617"></polygon>
                        <path d="M85.349242,52.9336076 C85.349242,52.1821582 84.8495227,51.8064335 83.8528916,51.8064335 L83.1987647,51.8064335 L83.1987647,54.1327847 L83.9300955,54.1327847 C84.8761931,54.1327847 85.349242,53.7334954 85.349242,52.9336076 L85.349242,52.9336076 Z M87,58 L85.6033127,58 L83.6970803,54.9496914 L83.1987647,54.9496914 L83.1987647,58 L82,58 L82,51.0209463 C82.8436272,51.0078549 83.5342504,51 84.0732734,51 C84.9098821,51 85.5471645,51.1649523 85.9907355,51.4974752 C86.3978102,51.8142884 86.6013476,52.2515429 86.6013476,52.8092388 C86.6013476,53.8578642 86.0202134,54.495418 84.8607524,54.7219001 L87,58 Z" id="Fill-13" fill="#58839F"></path>
                        <polygon id="Fill-15" fill="#58839F" points="92 58 88 58 88 51 91.9522031 51 91.9522031 51.8694184 89.2740851 51.8694184 89.2740851 53.9969981 91.4802091 53.9969981 91.4802091 54.8375235 89.2740851 54.8375235 89.2740851 57.1187617 92 57.1187617"></polygon>
                        <path d="M96.7614552,54.4438642 C96.7614552,52.7049608 96.0921966,51.8355091 94.7536795,51.8355091 C94.506526,51.8355091 94.316301,51.8394256 94.1843932,51.845953 L94.1843932,57.1148825 C94.4620939,57.1292428 94.6703693,57.1344648 94.8092197,57.1344648 C96.1102472,57.1344648 96.7614552,56.2389034 96.7614552,54.4438642 M98,54.310705 C98,56.770235 96.8530964,58 94.5565121,58 C94.3815607,58 94.1163566,57.9960836 93.7622883,57.9856397 C93.4082199,57.9751958 93.1541239,57.9699739 93,57.9699739 L93,51.0104439 C93.2193835,51.0104439 93.5331852,51.0078329 93.9427937,51 L94.8758678,51 C95.9644543,51 96.7767287,51.3237598 97.3099139,51.9699739 C97.770897,52.54047 98,53.3198433 98,54.310705" id="Fill-17" fill="#58839F"></path>
                        <polygon id="Fill-19" fill="#58839F" points="99.7419962 32 100.285625 32 100.285625 30.3389831 101 30.3389831 101 30 99 30 99 30.3389831 99.7419962 30.3389831"></polygon>
                        <polygon id="Fill-21" fill="#58839F" points="105.272727 32 106 32 106 30 104.907317 30 104.018625 31.3629113 103.051885 30 102 30 102 32 102.686475 32 102.686475 30.4765703 102.725499 30.4765703 103.738359 32 104.261641 32 105.272727 30.4765703"></polygon>
                        <path d="M52,43.928038 C52,47.5071283 50.6494689,50.1982349 47.952959,52 L46,50.5186694 C46.8558422,49.6157502 47.4355083,48.5403938 47.7283763,47.287169 C47.9256449,46.4317719 48.0227618,45.2477936 48.0227618,43.7325187 L48.0227618,24 L52,24 L52,43.928038 Z" id="Fill-23" fill="#58839F"></path>
                        <path d="M63.6173748,41.6492347 L63.6173748,37.5409758 L62.1899453,37.5409758 C58.9850652,37.5409758 57.3826252,38.5841837 57.3826252,40.6734694 C57.3826252,42.4829401 58.2316996,43.3898278 59.9353176,43.3898278 C61.1070677,43.3898278 62.3335086,42.8086735 63.6173748,41.6492347 L63.6173748,41.6492347 Z M67,45.6527423 L64.3461296,45.6527423 L64.0808793,43.7729592 C62.4456247,45.2581314 60.7420067,46 58.9727598,46 C55.6584981,46 54,44.3985969 54,41.1957908 C54,39.363361 54.6726967,37.9355867 56.0221918,36.9139031 C57.4810686,35.8219069 59.6153765,35.2780612 62.4237484,35.2780612 L63.6173748,35.2780612 L63.6173748,33.7110969 C63.6173748,31.6447704 62.4770719,30.6130421 60.1992007,30.6130421 C58.7170804,30.6130421 57.1050694,30.9488202 55.3576988,31.6218112 L54.8613799,29.4292092 C56.9163862,28.4764031 59.0083088,28 61.128944,28 C65.0434371,28 67,29.7535077 67,33.2576531 L67,45.6527423 Z" id="Fill-25" fill="#58839F"></path>
                        <path d="M83,30 C81.9471085,36.2796722 80.2893362,41.9472769 78.0320008,47 L73.9360934,47 L69,30 L72.5814263,30 L75.6443832,40.4431386 L76.3210521,43.5850853 C77.9136834,38.9432213 78.9772101,34.4153286 79.5156205,30 L83,30 Z" id="Fill-27" fill="#58839F"></path>
                        <path d="M94.6167192,41.6492347 L94.6167192,37.5409758 L93.1909569,37.5409758 C89.9840168,37.5409758 88.3819138,38.5841837 88.3819138,40.6734694 C88.3819138,42.4829401 89.2335436,43.3898278 90.9354364,43.3898278 C92.108307,43.3898278 93.33449,42.8086735 94.6167192,41.6492347 L94.6167192,41.6492347 Z M98,45.6527423 L95.3466877,45.6527423 L95.0828601,43.7729592 C93.4438486,45.2581314 91.7419558,46 89.9744479,46 C86.6581493,46 85,44.3985969 85,41.1957908 C85,39.363361 85.6725552,37.9355867 87.0231335,36.9139031 C88.4817035,35.8219069 90.6155626,35.2780612 93.4233438,35.2780612 L94.6167192,35.2780612 L94.6167192,33.7110969 C94.6167192,31.6447704 93.4793901,30.6130421 91.2019979,30.6130421 C89.7201893,30.6130421 88.1071504,30.9488202 86.3587802,31.6218112 L85.8611987,29.4292092 C87.9185068,28.4764031 90.0086225,28 92.1301788,28 C96.0438486,28 98,29.7535077 98,33.2576531 L98,45.6527423 Z" id="Fill-29" fill="#58839F"></path>
                        <path d="M11.5653929,40 C11.5653929,40 9.52627082,41.3417219 13.0170434,41.7991637 C17.2442839,42.3468053 19.4082791,42.2678805 24.0640616,41.2676292 C24.0640616,41.2676292 25.291508,42.1390236 27,42.8896148 C16.5532244,47.9762388 3.36065824,42.5996869 11.5653929,40" id="Fill-31" fill="#58839F"></path>
                        <path d="M10.7979035,34 C10.7979035,34 8.56779729,35.9581227 11.973099,36.3753737 C16.3724778,36.9125432 19.8496738,36.9568967 25.8611442,35.5835824 C25.8611442,35.5835824 26.6920766,36.5839992 28,37.1326678 C15.6977773,41.4086689 1.992233,37.4710682 10.7979035,34" id="Fill-33" fill="#58839F"></path>
                        <path d="M34.0274272,44.4787342 C34.0274272,44.4787342 35.4543988,45.7903133 32.4527914,46.8107639 C26.7516168,48.7376147 8.71780919,49.3228731 3.71065554,46.8872977 C1.90781174,46.0094101 5.28529126,44.7968747 6.34713001,44.5417621 C7.45595278,44.2746441 8.08822338,44.3211647 8.08822338,44.3211647 C6.08536192,42.7439683 -4.8578865,47.4185322 2.53068555,48.7556226 C22.6734042,52.4082353 39.2507073,47.1138977 34.0274272,44.4787342" id="Fill-35" fill="#58839F"></path>
                        <path d="M14.0861992,28.009263 C14.0861992,28.009263 4.67878365,30.4598868 10.756299,31.3533592 C13.3194549,31.7297968 18.4347543,31.6421125 23.1976542,31.205203 C27.0933209,30.8453952 31,30.0774021 31,30.0774021 C31,30.0774021 29.627569,30.7229396 28.6336922,31.466744 C19.0817378,34.2272864 0.630318756,32.9437702 5.94246634,30.122756 C10.4341838,27.7386512 14.0861992,28.009263 14.0861992,28.009263" id="Fill-37" fill="#58839F"></path>
                        <path d="M29.1901091,38.7249801 C38.6326404,33.276613 34.268164,28.0378557 31.2183857,28.7454744 C30.4726761,28.919406 30.1406546,29.0680654 30.1406546,29.0680654 C30.1406546,29.0680654 30.4177854,28.5864089 30.94661,28.3767991 C36.9765492,26.0235208 41.6128013,35.31622 29,39 C29,39 29.1459288,38.8558004 29.1901091,38.7249801" id="Fill-39" fill="#58839F"></path>
                        <path d="M14.4826221,51.8350588 C24.0150462,52.441195 38.6536736,51.4955103 39,47 C39,47 38.3326881,48.7019519 31.1231852,50.0587429 C22.9859217,51.5839051 12.9494941,51.4043092 7,50.4249502 C7,50.4249502 8.21777387,51.4323711 14.4826221,51.8350588" id="Fill-41" fill="#58839F"></path>
                    </g>
                </g>
            </g>
        </g>
    </g>
</svg>