<?xml version="1.0" encoding="UTF-8"?>
<svg width="28px" height="26px" viewBox="0 0 28 26" version="1.1" xmlns="http://www.w3.org/2000/svg" xmlns:xlink="http://www.w3.org/1999/xlink">
    <!-- Generator: sketchtool 56.3 (101010) - https://sketch.com -->
    <title>81C4D733-6CCD-4049-87E2-D48B51E88492</title>
    <desc>Created with sketchtool.</desc>
    <defs>
        <path d="M17.74,30 L16,29 L20,22 L26,22 C27.1045695,22 28,21.1045695 28,20 L28,8 C28,6.8954305 27.1045695,6 26,6 L6,6 C4.8954305,6 4,6.8954305 4,8 L4,20 C4,21.1045695 4.8954305,22 6,22 L15,22 L15,24 L6,24 C3.790861,24 2,22.209139 2,20 L2,8 C2,5.790861 3.790861,4 6,4 L26,4 C28.209139,4 30,5.790861 30,8 L30,20 C30,22.209139 28.209139,24 26,24 L21.16,24 L17.74,30 Z M8,10 L24,10 L24,12 L8,12 L8,10 Z M8,16 L18,16 L18,18 L8,18 L8,16 Z" id="path-1"></path>
    </defs>
    <g id="Getting-Started-Hifi" stroke="none" stroke-width="1" fill="none" fill-rule="evenodd">
        <g id="01.01-Getting-Started" transform="translate(-354.000000, -1560.000000)">
            <g id="icon/image/chat/32" transform="translate(352.000000, 1556.000000)">
                <mask id="mask-2" fill="white">
                    <use xlink:href="#path-1"></use>
                </mask>
                <use id="icon-color" fill="#000000" xlink:href="#path-1"></use>
            </g>
        </g>
    </g>
</svg>