<?xml version="1.0" encoding="UTF-8"?>
<svg width="35px" height="47px" viewBox="0 0 35 47" version="1.1" xmlns="http://www.w3.org/2000/svg" xmlns:xlink="http://www.w3.org/1999/xlink">
    <!-- Generator: sketchtool 56.3 (101010) - https://sketch.com -->
    <title>F5729CAE-1A29-479C-AAEF-3A3175F5C31E</title>
    <desc>Created with sketchtool.</desc>
    <g id="Getting-Started-Hifi" stroke="none" stroke-width="1" fill="none" fill-rule="evenodd">
        <g id="01.01-Getting-Started" transform="translate(-39.000000, -438.000000)" fill="#0f62fe">
            <g id="Group-2" transform="translate(16.000000, 413.000000)">
                <g id="pictograms/infrastructure/integration-01" transform="translate(16.000000, 24.000000)">
                    <path d="M19.6982895,37.6850092 C19.6990436,37.685438 19.6997971,37.6858687 19.7005501,37.6863014 C20.8015501,38.3223014 21.5890501,39.3483015 21.9190501,40.5783015 C22.2490501,41.8068015 22.0795501,43.0893016 21.4435501,44.1918016 L21.3760501,44.3073016 C20.6620501,45.5448016 18.75255,46.6278016 16.97955,47.5248017 C16.90155,47.5653017 16.81755,47.5833017 16.73655,47.5833017 C16.53855,47.5833017 16.34955,47.4753017 16.25355,47.2878017 C16.11855,47.0208016 16.22655,46.6968016 16.49205,46.5618016 C17.39355,46.1058016 19.7920501,44.8938016 20.4400501,43.7673016 L20.5090501,43.6503016 C20.9995501,42.7998015 21.1300501,41.8068015 20.8765501,40.8573015 C20.6215501,39.9063015 20.0125501,39.1143015 19.16055,38.6223014 C19.1543888,38.6187193 19.1483242,38.6150345 19.1423571,38.6112505 C18.2957407,38.1289642 17.3098167,38.0004902 16.3668006,38.2537489 C15.4173005,38.5087489 14.6238005,39.1177489 14.1318005,39.9697489 L14.1303005,39.9712489 L14.0613005,40.0882489 C13.4133005,41.2132488 13.5618005,43.8937488 13.6188005,44.9017487 C13.6353005,45.2002487 13.4073005,45.4537487 13.1103005,45.4717487 C13.0998005,45.4717487 13.0893005,45.4717487 13.0788005,45.4717487 C12.7953005,45.4717487 12.5568005,45.2497487 12.5403005,44.9617487 C12.4293005,42.9787488 12.4128005,40.7842488 13.1283005,39.5452489 L13.1988005,39.4267489 C13.8318005,38.3272489 14.8593005,37.5397489 16.0863005,37.2112489 C17.3136823,36.883048 18.5964631,37.0489462 19.6982895,37.6850092 Z M30.1758003,15.7728003 C28.8918003,15.7728003 27.6423002,16.4388003 26.9553002,17.6283003 C26.4588002,18.4863003 26.3283002,19.4853003 26.5848002,20.4438003 C26.8413002,21.4008003 27.4563002,22.2003003 28.3143003,22.6953002 C29.1708003,23.1903002 30.1698003,23.3238002 31.1298003,23.0673002 C32.0868003,22.8108002 32.8878003,22.1958003 33.3828004,21.3378003 C34.4058004,19.5663003 33.7953004,17.2923003 32.0238003,16.2693003 C31.4418003,15.9333003 30.8043003,15.7728003 30.1758003,15.7728003 Z M30.1608003,24.2748002 C29.3313003,24.2748002 28.5123003,24.0573002 27.7728003,23.6313002 C26.6658002,22.9908002 25.8723002,21.9588002 25.5423002,20.7228002 C25.2093002,19.4868002 25.3803002,18.1953002 26.0193002,17.0868002 C27.3408003,14.8008003 30.2748003,14.0178003 32.5638004,15.3333003 L32.5638004,15.3348003 C34.8513004,16.6548003 35.6388005,19.5903002 34.3188004,21.8778002 C33.6783004,22.9863002 32.6448004,23.7783002 31.4088004,24.1098002 C30.9963003,24.2208002 30.5778003,24.2748002 30.1608003,24.2748002 Z M29.0096994,46.2364494 C28.8221994,46.2364494 28.6406994,46.1404494 28.5416994,45.9664494 C28.3916994,45.7084494 28.4801994,45.3784494 28.7396994,45.2284494 L34.2866992,42.0304494 L30.5636993,35.5834495 C30.4571994,35.3989495 30.4691994,35.1709495 30.5921993,34.9984495 L35.9486991,27.5314496 C38.921699,23.3869497 40.4951989,18.5014498 40.4951989,13.3999499 L40.4951989,3.94095001 C40.4951989,3.45045002 40.2416989,3.01095002 39.817199,2.76495003 C39.394199,2.52045003 38.888699,2.52195003 38.465699,2.76495003 L30.2711994,7.49594996 C25.8536995,10.0474499 22.4066997,13.8514499 20.3051998,18.4984498 L16.5176999,26.8714497 C16.4291999,27.0649497 16.2371999,27.1894497 16.0257,27.1894497 L8.57970026,27.1894497 L8.58270026,33.6094496 C8.58270026,33.9079496 8.34120027,34.1494495 8.04270029,34.1494495 C7.7442003,34.1494495 7.50270031,33.9079496 7.50270031,33.6094496 L7.49970031,26.6494497 C7.49970031,26.5069497 7.55670031,26.3689497 7.6587003,26.2669497 C7.7592003,26.1664497 7.89570029,26.1094497 8.03970029,26.1094497 L15.6762,26.1094497 L19.3211998,18.0529498 C21.5156997,13.2004499 25.1156996,9.22544993 29.7296994,6.56144997 L37.924199,1.83045004 C38.686199,1.39095005 39.595199,1.39095005 40.3571989,1.83045004 C41.1206989,2.26995004 41.5751989,3.05895002 41.5751989,3.94095001 L41.5751989,13.3999499 C41.5736989,18.7279498 39.932699,23.8324497 36.8261991,28.1614496 L31.6721993,35.3449495 L35.4911991,41.9584494 C35.5631991,42.0829494 35.5826991,42.2299494 35.5451991,42.3679494 C35.5076991,42.5074494 35.4176991,42.6244494 35.2931992,42.6964494 L29.2781994,46.1644494 C29.1941994,46.2139494 29.1011994,46.2364494 29.0096994,46.2364494 Z" id="Fill-9"></path>
                </g>
            </g>
        </g>
    </g>
</svg>