<?xml version="1.0" encoding="UTF-8"?>
<svg width="26px" height="26px" viewBox="0 0 26 26" version="1.1" xmlns="http://www.w3.org/2000/svg" xmlns:xlink="http://www.w3.org/1999/xlink">
    <!-- Generator: sketchtool 56.3 (101010) - https://sketch.com -->
    <title>0BED4BE2-D74A-43BA-A047-AC7A059AFD76</title>
    <desc>Created with sketchtool.</desc>
    <defs>
        <path d="M27.89,12.43 C25.19,3.43 21.4,1.43 12.43,4.1 C3.46,6.77 1.43,10.59 4.1,19.56 C6.77,28.53 10.59,30.56 19.56,27.89 C28.53,25.22 30.6,21.41 27.89,12.43 Z M13.6988368,14.9500998 L17.1882601,13.7812006 L18.3222194,17.1663204 L14.8327962,18.3352197 L13.6988368,14.9500998 Z M23.35,18.27 L21.62,18.81 L22.16,20.54 C22.2858578,20.8830875 22.2650001,21.2628464 22.1023257,21.5900868 C21.9396513,21.9173271 21.649494,22.1632145 21.3,22.27 C21.19,22.27 20.98,22.38 20.87,22.38 C20.3023958,22.3833749 19.7889269,22.0436955 19.57,21.52 L19,19.78 L15.57,21 L16.11,22.73 C16.2358578,23.0730875 16.2150001,23.4528464 16.0523257,23.7800868 C15.8896513,24.1073271 15.599494,24.3532145 15.25,24.46 C15.14,24.46 14.93,24.5700249 14.82,24.5700249 C14.2523958,24.5733749 13.7389269,24.2336955 13.52,23.71 L13,21.95 L11.27,22.49 C11.16,22.49 10.95,22.6 10.84,22.6 C10.2723958,22.6033749 9.7589269,22.2636955 9.54,21.74 C9.41013003,21.3983621 9.42657473,21.0183352 9.58547101,20.6891929 C9.7443673,20.3600506 10.0317106,20.1108024 10.38,20 L12.11,19.46 L11,16.11 L9.49,16.33 C9.38,16.33 9.17,16.44 9.06,16.44 C8.49239577,16.4433749 7.9789269,16.1036955 7.76,15.58 C7.63414224,15.2369125 7.65499987,14.8571536 7.81767427,14.5299132 C7.98034867,14.2026729 8.27050596,13.9567855 8.62,13.85 L10.35,13.31 L9.81,11.58 C9.64752266,10.8896541 10.0387638,10.1894317 10.7118373,9.96594015 C11.3849107,9.74244857 12.1172809,10.0695799 12.4,10.72 L13,12.43 L16.46,11.24 L15.92,9.51 C15.713202,9.034243 15.7928584,8.48248902 16.125777,8.08465066 C16.4586956,7.68681231 16.9877661,7.51113639 17.492528,7.63082603 C17.9972898,7.75051567 18.3911541,8.14503881 18.51,8.65 L19,10.38 L20.73,9.84 C21.4203459,9.67752266 22.1205683,10.0687638 22.3440599,10.7418373 C22.5675514,11.4149107 22.2404201,12.1472809 21.59,12.43 L19.89,13 L21,16.32 L22.73,15.78 C23.0730875,15.6541422 23.4528464,15.6749999 23.7800868,15.8376743 C24.1073271,16.0003487 24.3532145,16.290506 24.46,16.64 C24.4419284,17.3540803 24.0078098,17.9915697 23.35,18.27 L23.35,18.27 Z" id="path-1"></path>
    </defs>
    <g id="Getting-Started-Hifi" stroke="none" stroke-width="1" fill="none" fill-rule="evenodd">
        <g id="01.01-Getting-Started" transform="translate(-674.000000, -1559.000000)">
            <g id="icon/image/chat/32-copy" transform="translate(671.000000, 1556.000000)">
                <mask id="mask-2" fill="white">
                    <use xlink:href="#path-1"></use>
                </mask>
                <use id="icon-color" fill="#000000" xlink:href="#path-1"></use>
            </g>
        </g>
    </g>
</svg>