<?xml version="1.0" encoding="UTF-8"?>
<svg width="28px" height="28px" viewBox="0 0 28 28" version="1.1" xmlns="http://www.w3.org/2000/svg" xmlns:xlink="http://www.w3.org/1999/xlink">
    <!-- Generator: sketchtool 56.3 (101010) - https://sketch.com -->
    <title>1BEC870F-1254-45BF-9519-AE4C7A616CE7</title>
    <desc>Created with sketchtool.</desc>
    <defs>
        <path d="M6,21 L6,20 L4,20 L4,21 C4,24.8659932 7.13400675,28 11,28 L14,28 L14,26 L11,26 C8.23857625,26 6,23.7614237 6,21 Z M24,11 L24,12 L26,12 L26,11 C26,7.13400675 22.8659932,4 19,4 L16,4 L16,6 L19,6 C20.3260824,6 21.597852,6.5267842 22.5355339,7.46446609 C23.4732158,8.40214799 24,9.67391755 24,11 L24,11 Z M11,11 L5,11 C3.34314575,11 2,12.3431458 2,14 L2,16 L4,16 L4,14 C4,13.4477153 4.44771525,13 5,13 L11,13 C11.5522847,13 12,13.4477153 12,14 L12,16 L14,16 L14,14 C14,12.3431458 12.6568542,11 11,11 L11,11 Z M8,10 C10.209139,10 12,8.209139 12,6 C12,3.790861 10.209139,2 8,2 C5.790861,2 4,3.790861 4,6 C4,8.209139 5.790861,10 8,10 Z M8,4 C9.1045695,4 10,4.8954305 10,6 C10,7.1045695 9.1045695,8 8,8 C6.8954305,8 6,7.1045695 6,6 C6,4.8954305 6.8954305,4 8,4 Z M27,25 L21,25 C19.3431458,25 18,26.3431458 18,28 L18,30 L20,30 L20,28 C20,27.4477153 20.4477153,27 21,27 L27,27 C27.5522847,27 28,27.4477153 28,28 L28,30 L30,30 L30,28 C30,26.3431458 28.6568542,25 27,25 L27,25 Z M20,20 C20,22.209139 21.790861,24 24,24 C26.209139,24 28,22.209139 28,20 C28,17.790861 26.209139,16 24,16 C21.790861,16 20,17.790861 20,20 Z M26,20 C26,21.1045695 25.1045695,22 24,22 C22.8954305,22 22,21.1045695 22,20 C22,18.8954305 22.8954305,18 24,18 C25.1045695,18 26,18.8954305 26,20 Z" id="path-1"></path>
    </defs>
    <g id="Getting-Started-Hifi" stroke="none" stroke-width="1" fill="none" fill-rule="evenodd">
        <g id="01.01-Getting-Started" transform="translate(-993.000000, -1558.000000)">
            <g id="icon/image/chat/32-copy-2" transform="translate(991.000000, 1556.000000)">
                <mask id="mask-2" fill="white">
                    <use xlink:href="#path-1"></use>
                </mask>
                <use id="icon-color" fill="#000000" xlink:href="#path-1"></use>
            </g>
        </g>
    </g>
</svg>